<svg width="0" height="0" class="hidden">
  <symbol version="1.0" xmlns="http://www.w3.org/2000/svg" preserveAspectRatio="xMidYMid meet" viewBox="0 0 80.000000 80.000000" id="logo-flower">
    <metadata>Created by potrace 1.10, written by Peter Selinger 2001-2011</metadata>
    <g transform="translate(0.000000,80.000000) scale(0.100000,-0.100000)" fill="#000000" stroke="none">
      <path d="M526 684 l-36 -25 -27 20 c-34 27 -92 27 -127 0 l-26 -20 -29 20
c-48 35 -61 28 -61 -29 0 -41 -3 -50 -17 -50 -44 -1 -86 -61 -81 -116 2 -30
-2 -36 -32 -53 -44 -23 -44 -39 0 -62 30 -17 34 -23 32 -53 -5 -55 37 -115 81
-116 14 0 17 -9 17 -50 0 -57 13 -64 61 -29 l29 20 26 -20 c16 -13 41 -21 64
-21 23 0 48 8 64 21 l26 20 29 -20 c48 -35 61 -28 61 29 0 41 3 50 18 50 43 1
85 61 80 116 -2 30 2 36 32 53 19 10 35 24 35 31 0 7 -16 21 -35 31 -30 17
-34 23 -32 53 5 55 -37 115 -80 116 -15 0 -18 9 -18 49 0 28 -4 52 -8 55 -5 3
-25 -6 -46 -20z m-243 -32 c10 -9 17 -29 17 -48 l0 -33 -30 17 c-25 14 -30 23
-30 55 0 40 5 41 43 9z m171 7 c30 -24 35 -72 11 -119 -10 -20 -12 -31 -4 -35
10 -7 38 21 39 37 0 12 57 38 84 38 30 0 76 -52 76 -86 0 -37 -40 -71 -94 -79
-25 -4 -46 -11 -46 -15 0 -4 21 -11 46 -15 87 -13 118 -75 68 -134 -41 -49
-106 -37 -146 26 -25 42 -46 30 -23 -13 8 -16 15 -46 15 -66 0 -68 -78 -101
-134 -57 -31 24 -35 76 -11 123 23 43 2 55 -23 13 -40 -63 -105 -75 -146 -26
-52 61 -18 123 73 135 28 4 51 10 51 14 0 4 -23 10 -51 14 -91 12 -125 74 -73
135 41 49 106 37 146 -26 25 -42 46 -30 23 13 -24 47 -20 99 11 123 15 12 39
21 54 21 15 0 39 -9 54 -21z m106 -16 c0 -32 -5 -41 -30 -55 l-30 -17 0 34 c0
24 7 39 26 54 15 12 28 21 30 21 2 0 4 -17 4 -37z m-395 -225 c32 -14 32 -22
-2 -37 -20 -9 -33 -9 -55 0 -34 14 -35 22 -5 37 29 14 32 14 62 0z m530 0 c32
-14 32 -22 -2 -37 -20 -9 -33 -9 -55 0 -34 14 -35 22 -5 37 29 14 32 14 62 0z
m-406 -264 c-7 -8 -21 -20 -31 -25 -16 -9 -18 -5 -18 28 0 31 5 41 28 53 27
16 27 16 30 -13 2 -15 -2 -35 -9 -43z m271 3 c0 -28 -3 -36 -12 -31 -34 19
-48 40 -48 70 l0 33 30 -17 c25 -14 30 -23 30 -55z"></path>
      <path d="M230 500 c0 -17 34 -42 44 -33 11 11 6 25 -6 20 -7 -2 -18 3 -25 12
-11 14 -12 14 -13 1z"></path>
      <path d="M339 461 c-20 -20 -29 -39 -29 -61 0 -43 47 -90 90 -90 43 0 90 47
90 90 0 43 -47 90 -90 90 -22 0 -41 -9 -61 -29z m106 -16 c14 -13 25 -33 25
-45 0 -11 -11 -32 -25 -45 -31 -32 -59 -32 -90 0 -14 13 -25 34 -25 45 0 12
11 32 25 45 13 14 34 25 45 25 12 0 32 -11 45 -25z"></path>
    </g>
  </symbol>
</svg>