<svg width="0" height="0" class="hidden">
  <symbol xmlns="http://www.w3.org/2000/svg" id="chevron" viewBox="0 0 16 16">
    <path fill="#444" d="M8 16c4.4 0 8-3.6 8-8s-3.6-8-8-8-8 3.6-8 8 3.6 8 8 8zM5.2 4.4L6.6 3l5 5-5 5-1.4-1.4L8.8 8 5.2 4.4z"></path>
  </symbol>
  <symbol xmlns="http://www.w3.org/2000/svg" id="heart-svg" viewBox="0 0 16 16">
    <path fill="#f05542" d="M5.301 3.002c-.889-.047-1.759.247-2.404.893-1.29 1.292-1.175 3.49.26 4.926l.515.515L8.332 14l4.659-4.664.515-.515c1.435-1.437 1.55-3.634.26-4.926-1.29-1.292-3.483-1.175-4.918.262l-.516.517-.517-.517C7.098 3.438 6.19 3.049 5.3 3.002z"></path>
  </symbol>
  <symbol version="1.0" xmlns="http://www.w3.org/2000/svg" preserveAspectRatio="xMidYMid meet" viewBox="0 0 80.000000 80.000000" id="logo-flower">
    <metadata>Created by potrace 1.10, written by Peter Selinger 2001-2011</metadata>
    <g transform="translate(0.000000,80.000000) scale(0.100000,-0.100000)" fill="#000000" stroke="none">
      <path d="M526 684 l-36 -25 -27 20 c-34 27 -92 27 -127 0 l-26 -20 -29 20
c-48 35 -61 28 -61 -29 0 -41 -3 -50 -17 -50 -44 -1 -86 -61 -81 -116 2 -30
-2 -36 -32 -53 -44 -23 -44 -39 0 -62 30 -17 34 -23 32 -53 -5 -55 37 -115 81
-116 14 0 17 -9 17 -50 0 -57 13 -64 61 -29 l29 20 26 -20 c16 -13 41 -21 64
-21 23 0 48 8 64 21 l26 20 29 -20 c48 -35 61 -28 61 29 0 41 3 50 18 50 43 1
85 61 80 116 -2 30 2 36 32 53 19 10 35 24 35 31 0 7 -16 21 -35 31 -30 17
-34 23 -32 53 5 55 -37 115 -80 116 -15 0 -18 9 -18 49 0 28 -4 52 -8 55 -5 3
-25 -6 -46 -20z m-243 -32 c10 -9 17 -29 17 -48 l0 -33 -30 17 c-25 14 -30 23
-30 55 0 40 5 41 43 9z m171 7 c30 -24 35 -72 11 -119 -10 -20 -12 -31 -4 -35
10 -7 38 21 39 37 0 12 57 38 84 38 30 0 76 -52 76 -86 0 -37 -40 -71 -94 -79
-25 -4 -46 -11 -46 -15 0 -4 21 -11 46 -15 87 -13 118 -75 68 -134 -41 -49
-106 -37 -146 26 -25 42 -46 30 -23 -13 8 -16 15 -46 15 -66 0 -68 -78 -101
-134 -57 -31 24 -35 76 -11 123 23 43 2 55 -23 13 -40 -63 -105 -75 -146 -26
-52 61 -18 123 73 135 28 4 51 10 51 14 0 4 -23 10 -51 14 -91 12 -125 74 -73
135 41 49 106 37 146 -26 25 -42 46 -30 23 13 -24 47 -20 99 11 123 15 12 39
21 54 21 15 0 39 -9 54 -21z m106 -16 c0 -32 -5 -41 -30 -55 l-30 -17 0 34 c0
24 7 39 26 54 15 12 28 21 30 21 2 0 4 -17 4 -37z m-395 -225 c32 -14 32 -22
-2 -37 -20 -9 -33 -9 -55 0 -34 14 -35 22 -5 37 29 14 32 14 62 0z m530 0 c32
-14 32 -22 -2 -37 -20 -9 -33 -9 -55 0 -34 14 -35 22 -5 37 29 14 32 14 62 0z
m-406 -264 c-7 -8 -21 -20 -31 -25 -16 -9 -18 -5 -18 28 0 31 5 41 28 53 27
16 27 16 30 -13 2 -15 -2 -35 -9 -43z m271 3 c0 -28 -3 -36 -12 -31 -34 19
-48 40 -48 70 l0 33 30 -17 c25 -14 30 -23 30 -55z"></path>
      <path d="M230 500 c0 -17 34 -42 44 -33 11 11 6 25 -6 20 -7 -2 -18 3 -25 12
-11 14 -12 14 -13 1z"></path>
      <path d="M339 461 c-20 -20 -29 -39 -29 -61 0 -43 47 -90 90 -90 43 0 90 47
90 90 0 43 -47 90 -90 90 -22 0 -41 -9 -61 -29z m106 -16 c14 -13 25 -33 25
-45 0 -11 -11 -32 -25 -45 -31 -32 -59 -32 -90 0 -14 13 -25 34 -25 45 0 12
11 32 25 45 13 14 34 25 45 25 12 0 32 -11 45 -25z"></path>
    </g>
  </symbol>
  <symbol xmlns="http://www.w3.org/2000/svg" enable-background="new 0 0 24 24" id="menu-bar" viewBox="0 0 24 24">
    <rect width="24" height="24" fill="none"></rect>
    <path d="M18.2,12.7H5.8C5.3,12.7,5,12.4,5,12s0.3-0.7,0.7-0.7h12.5c0.4,0,0.7,0.3,0.7,0.7S18.7,12.7,18.2,12.7z M19,7.8
		C19,7.3,18.7,7,18.3,7H5.8C5.3,7,5,7.4,5,7.8s0.3,0.7,0.7,0.7h12.5C18.7,8.5,19,8.2,19,7.8z M19,16.2c0-0.4-0.3-0.7-0.7-0.7H5.8
		c-0.4,0-0.7,0.3-0.7,0.7C5,16.6,5.4,17,5.8,17h12.5C18.7,17,19,16.7,19,16.2z"></path>
  </symbol>
  <symbol xmlns="http://www.w3.org/2000/svg" id="shopping-bag" viewBox="0 0 48 48">
    <path d="M41.3 14.58a5 5 0 0 0-5-4.58H34a10 10 0 0 0-20 0h-2.32a5 5 0 0 0-5 4.58l-2.36 28a5 5 0 0 0 5 5.39h29.35a5 5 0 0 0 5-5.4ZM24 2a8 8 0 0 1 8 8H16a8 8 0 0 1 8-8Zm14.67 44H9.33a3 3 0 0 1-3-3.23l2.35-28a3 3 0 0 1 3-2.75H14v6h-1a1 1 0 0 0 0 2h4a1 1 0 0 0 0-2h-1V12h16v6h-1a1 1 0 0 0 0 2h4a1 1 0 0 0 0-2h-1v-6h2.32a3 3 0 0 1 3 2.75l2.35 28a3 3 0 0 1-3 3.25Z"></path>
  </symbol>
  <symbol xmlns="http://www.w3.org/2000/svg" id="user" viewBox="0 0 1024 1024">
    <path d="M670.1 278.4c0 8.8-.6 17.6-1.7 26.3.5-3.5 1-7.1 1.4-10.6-2.4 17.4-7 34.3-13.7 50.5 1.3-3.2 2.7-6.4 4-9.6-6.7 15.8-15.3 30.6-25.8 44.2l6.3-8.1c-10.4 13.4-22.5 25.5-35.9 35.9l8.1-6.3c-13.6 10.4-28.4 19.1-44.2 25.8 3.2-1.3 6.4-2.7 9.6-4-16.2 6.7-33.1 11.3-50.5 13.7 3.5-.5 7.1-1 10.6-1.4-17.5 2.3-35.1 2.3-52.6 0 3.5.5 7.1 1 10.6 1.4-17.4-2.4-34.3-7-50.5-13.7 3.2 1.3 6.4 2.7 9.6 4-15.8-6.7-30.6-15.3-44.2-25.8l8.1 6.3c-13.4-10.4-25.5-22.5-35.9-35.9l6.3 8.1c-10.4-13.6-19.1-28.4-25.8-44.2 1.3 3.2 2.7 6.4 4 9.6-6.7-16.2-11.3-33.1-13.7-50.5.5 3.5 1 7.1 1.4 10.6-2.3-17.5-2.3-35.1 0-52.6-.5 3.5-1 7.1-1.4 10.6 2.4-17.4 7-34.3 13.7-50.5-1.3 3.2-2.7 6.4-4 9.6 6.7-15.8 15.3-30.6 25.8-44.2l-6.3 8.1c10.4-13.4 22.5-25.5 35.9-35.9l-8.1 6.3c13.6-10.4 28.4-19.1 44.2-25.8-3.2 1.3-6.4 2.7-9.6 4 16.2-6.7 33.1-11.3 50.5-13.7-3.5.5-7.1 1-10.6 1.4 17.5-2.3 35.1-2.3 52.6 0-3.5-.5-7.1-1-10.6-1.4 17.4 2.4 34.3 7 50.5 13.7-3.2-1.3-6.4-2.7-9.6-4 15.8 6.7 30.6 15.3 44.2 25.8l-8.1-6.3c13.4 10.4 25.5 22.5 35.9 35.9l-6.3-8.1c10.4 13.6 19.1 28.4 25.8 44.2-1.3-3.2-2.7-6.4-4-9.6 6.7 16.2 11.3 33.1 13.7 50.5-.5-3.5-1-7.1-1.4-10.6 1.1 8.7 1.6 17.5 1.7 26.3.1 20.9 18.3 41 40 40 21.6-1 40.1-17.6 40-40-.2-47.9-14.6-96.9-42.8-135.9-7.6-10.5-15.7-20.8-24.7-30.1-9.1-9.4-19.1-17.5-29.5-25.4-18.9-14.4-40-25-62.4-33.2-90.3-33.1-199.2-3.6-260.3 70.8-8.4 10.2-16.4 20.8-23.2 32.2-6.8 11.3-12.1 23.3-17 35.5-9.2 22.6-13.9 46.6-15.8 70.9-3.7 47.6 8.7 97.3 33.5 138.1 23.9 39.4 60 73.2 102.2 92.3 12.4 5.6 25.1 10.8 38.3 14.5 13.1 3.6 26.4 5.6 39.9 7.2 24.6 2.9 49.7.9 74-4 92.3-18.8 169.6-98.3 183.9-191.6 2.1-13.6 3.7-27.2 3.7-41 .1-20.9-18.5-41-40-40-21.6.7-39.8 17.3-39.8 39.7zm132.7 625.3H289.7c-22.7 0-45.4.2-68.1 0-2.5 0-5-.2-7.4-.5 3.5.5 7.1 1 10.6 1.4-4-.6-7.8-1.7-11.5-3.2 3.2 1.3 6.4 2.7 9.6 4-4-1.7-7.7-3.9-11.2-6.6l8.1 6.3c-3-2.5-5.8-5.2-8.2-8.2l6.3 8.1c-2.7-3.5-4.8-7.2-6.6-11.2 1.3 3.2 2.7 6.4 4 9.6-1.5-3.7-2.5-7.6-3.2-11.5.5 3.5 1 7.1 1.4 10.6-1.6-12.1-.5-24.9-.5-37.1v-42.8c0-10.7.6-21.3 2-31.9-.5 3.5-1 7.1-1.4 10.6 2.8-20.5 8.2-40.6 16.3-59.7-1.3 3.2-2.7 6.4-4 9.6 7.8-18.2 17.8-35.3 29.9-51l-6.3 8.1c12.1-15.5 26-29.5 41.6-41.6L283 673c15.7-12.1 32.8-22.1 51-29.9-3.2 1.3-6.4 2.7-9.6 4 19.1-8 39.1-13.5 59.7-16.3-3.5.5-7.1 1-10.6 1.4 14.8-1.9 29.5-2 44.4-2h183c16.5 0 32.9-.1 49.4 2-3.5-.5-7.1-1-10.6-1.4 20.5 2.8 40.6 8.2 59.7 16.3-3.2-1.3-6.4-2.7-9.6-4 18.2 7.8 35.3 17.8 51 29.9l-8.1-6.3c15.5 12.1 29.5 26 41.6 41.6l-6.3-8.1c12.1 15.7 22.1 32.8 29.9 51-1.3-3.2-2.7-6.4-4-9.6 8 19.1 13.5 39.1 16.3 59.7-.5-3.5-1-7.1-1.4-10.6 1.9 15.1 2 30.1 2 45.3v49.5c0 5.7.2 11.4-.5 17 .5-3.5 1-7.1 1.4-10.6-.6 4-1.7 7.8-3.2 11.5 1.3-3.2 2.7-6.4 4-9.6-1.7 4-3.9 7.7-6.6 11.2l6.3-8.1c-2.5 3-5.2 5.8-8.2 8.2l8.1-6.3c-3.5 2.7-7.2 4.8-11.2 6.6 3.2-1.3 6.4-2.7 9.6-4-3.7 1.5-7.6 2.5-11.5 3.2 3.5-.5 7.1-1 10.6-1.4-2.2.3-4.5.4-6.8.5-10.3.1-20.9 4.4-28.3 11.7-6.9 6.9-12.2 18.3-11.7 28.3 1 21.4 17.6 40.3 40 40 38.9-.6 73.1-26 84.5-63.3 4.5-14.8 3.5-30.7 3.5-45.9 0-34.8 1.1-69.3-4.9-103.8-8.8-50.5-34.2-98-69-135.3-34.8-37.3-81.6-64.7-131.1-76.9-28.4-7-57-8.1-86-8.1H422.4c-29.7 0-59.2 1.4-88.1 9.1-49.1 13-95.3 40.7-129.4 78.3-34.4 37.9-59.3 85.5-67.4 136.3-5.4 34.1-4.3 68.3-4.3 102.7 0 15.8-.9 32.3 4.8 47.4 7.4 19.4 19.2 34.7 36.5 46.2 13.5 8.9 30.6 13.2 46.6 13.4 7.8.1 15.6 0 23.4 0h558.4c20.9 0 41-18.4 40-40-1-21.8-17.6-40.1-40.1-40.1z"></path>
  </symbol>
</svg>