<svg width="0" height="0" class="hidden">
  <symbol xmlns="http://www.w3.org/2000/svg" id="facebook" viewBox="0 0 24 24">
    <path d="M15.12,5.32H17V2.14A26.11,26.11,0,0,0,14.26,2C11.54,2,9.68,3.66,9.68,6.7V9.32H6.61v3.56H9.68V22h3.68V12.88h3.06l.46-3.56H13.36V7.05C13.36,6,13.64,5.32,15.12,5.32Z"></path>
  </symbol>
  <symbol xmlns="http://www.w3.org/2000/svg" id="instagram-logo" viewBox="0 0 256 256">
    <rect width="256" height="256" fill="none"></rect>
    <circle cx="128" cy="128" r="32"></circle>
    <path d="M172,28H84A56.06353,56.06353,0,0,0,28,84v88a56.06353,56.06353,0,0,0,56,56h88a56.06353,56.06353,0,0,0,56-56V84A56.06353,56.06353,0,0,0,172,28ZM128,176a48,48,0,1,1,48-48A48.05436,48.05436,0,0,1,128,176Zm52-88a12,12,0,1,1,12-12A12,12,0,0,1,180,88Z"></path>
  </symbol>
  <symbol xmlns="http://www.w3.org/2000/svg" id="youtube" viewBox="0 0 24 24">
    <path d="M23,9.71a8.5,8.5,0,0,0-.91-4.13,2.92,2.92,0,0,0-1.72-1A78.36,78.36,0,0,0,12,4.27a78.45,78.45,0,0,0-8.34.3,2.87,2.87,0,0,0-1.46.74c-.9.83-1,2.25-1.1,3.45a48.29,48.29,0,0,0,0,6.48,9.55,9.55,0,0,0,.3,2,3.14,3.14,0,0,0,.71,1.36,2.86,2.86,0,0,0,1.49.78,45.18,45.18,0,0,0,6.5.33c3.5.05,6.57,0,10.2-.28a2.88,2.88,0,0,0,1.53-.78,2.49,2.49,0,0,0,.61-1,10.58,10.58,0,0,0,.52-3.4C23,13.69,23,10.31,23,9.71ZM9.74,14.85V8.66l5.92,3.11C14,12.69,11.81,13.73,9.74,14.85Z"></path>
  </symbol>
</svg>